<?xml version="1.0" standalone="no"?><!DOCTYPE svg PUBLIC "-//W3C//DTD SVG 1.1//EN" "http://www.w3.org/Graphics/SVG/1.1/DTD/svg11.dtd"><svg t="1690366585924" class="icon" viewBox="0 0 1024 1024" version="1.1" xmlns="http://www.w3.org/2000/svg" p-id="2579" xmlns:xlink="http://www.w3.org/1999/xlink" width="200" height="200"><path d="M190.272 105.216c-3.896 46.256-52.096 53.56-52.096 53.56 41.384 1.944 51.7 56.236 51.7 56.236C190.76 176.304 243.16 158.2 243.16 158.2c-39.256-2.348-52.888-52.984-52.888-52.984z" fill="#D7E057" p-id="2580"></path><path d="M243.516 152.212c-34.416-2.056-47.328-48.096-47.452-48.56a6 6 0 1 0-11.768 1.06C180.852 145.572 139.04 152.568 137.276 152.84a6 6 0 0 0 0.616 11.928c36.112 1.7 45.996 50.876 46.092 51.372a6 6 0 0 0 11.888-0.988c0.776-34.036 48.764-51.108 49.252-51.276a6.008 6.008 0 0 0-1.608-11.664zM189.252 193.596c-5.428-12.52-14.836-27.628-30.348-35.504 11.724-5.62 25.636-15.652 32.808-33.092 6.204 12.284 16.8 27.52 33.336 34.888-12.028 6.56-27.688 17.62-35.796 33.708z" fill="#3A312A" p-id="2581"></path><path d="M103.476 173.136c-2.756 32.716-36.848 37.884-36.848 37.884 29.272 1.376 36.568 39.776 36.568 39.776 0.624-27.376 37.688-40.18 37.688-40.18-27.764-1.66-37.408-37.48-37.408-37.48z" fill="#D7E057" p-id="2582"></path><path d="M141.24 204.624c-23.064-1.38-31.888-32.74-31.976-33.056a5.996 5.996 0 1 0-11.768 1.064c-2.316 27.484-30.584 32.264-31.768 32.452a6 6 0 0 0 0.616 11.924c24.144 1.136 30.896 34.576 30.956 34.904a6 6 0 0 0 11.892-0.984c0.52-22.836 33.328-34.536 33.652-34.648a5.996 5.996 0 0 0-1.604-11.656z m-38.336 27.184c-3.696-7.544-9.36-15.788-17.788-21.12 7.424-4.168 14.788-10.52 19.484-19.668 4.228 7.496 10.616 15.82 19.764 20.896-7.4 4.404-15.956 10.964-21.46 19.892z" fill="#3A312A" p-id="2583"></path><path d="M103.476 66.508c-2.756 32.716-36.848 37.884-36.848 37.884 29.272 1.376 36.568 39.776 36.568 39.776 0.624-27.38 37.688-40.18 37.688-40.18-27.764-1.664-37.408-37.48-37.408-37.48z" fill="#D7E057" p-id="2584"></path><path d="M141.244 97.996c-23.068-1.38-31.892-32.74-31.976-33.06a5.996 5.996 0 1 0-11.768 1.064c-2.316 27.484-30.584 32.268-31.768 32.456a6 6 0 0 0 0.62 11.928c24.14 1.136 30.892 34.576 30.956 34.904a6 6 0 0 0 11.892-0.984c0.52-22.836 33.328-34.536 33.652-34.648a6 6 0 0 0-1.608-11.66z m-38.34 27.18c-3.696-7.54-9.36-15.788-17.788-21.12 7.424-4.164 14.788-10.52 19.484-19.664 4.228 7.496 10.62 15.816 19.764 20.896-7.4 4.4-15.956 10.956-21.46 19.888z" fill="#3A312A" p-id="2585"></path><path d="M453.764 365.012H124.212c-32.12 0-58.16 26.04-58.16 58.156v178.788c0 32.12 26.04 58.16 58.16 58.16h329.552c32.12 0 58.156-26.04 58.156-58.16v-178.788c0-32.116-26.036-58.156-58.156-58.156z" fill="#8AC6DD" p-id="2586"></path><path d="M453.764 359.012H124.212c-35.376 0-64.156 28.78-64.156 64.16v178.784c0 35.38 28.78 64.16 64.156 64.16h329.552c35.376 0 64.16-28.78 64.16-64.16v-178.784c-0.004-35.376-28.784-64.16-64.16-64.16z m52.156 242.944c0 28.76-23.4 52.16-52.16 52.16H124.212c-28.76 0-52.156-23.4-52.156-52.16v-178.784c0-28.76 23.4-52.16 52.156-52.16h329.552c28.76 0 52.16 23.4 52.16 52.16v178.784z" fill="#3A312A" p-id="2587"></path><path d="M899.792 365.012H570.24c-32.12 0-58.156 26.04-58.156 58.156v178.788c0 32.12 26.04 58.16 58.156 58.16h329.552c32.12 0 58.156-26.04 58.156-58.16v-178.788c0-32.116-26.04-58.156-58.156-58.156z" fill="#FCE8CB" p-id="2588"></path><path d="M957.948 480.052a6 6 0 0 0 6-6v-50.88c0-35.376-28.78-64.16-64.156-64.16h-329.556c-35.376 0-64.16 28.78-64.16 64.16v178.784c0 35.38 28.78 64.16 64.16 64.16h329.556c35.376 0 64.156-28.78 64.156-64.16v-69.72a6 6 0 1 0-12 0v69.72c0 28.76-23.396 52.16-52.156 52.16h-329.556c-28.76 0-52.16-23.4-52.16-52.16v-178.784c0-28.76 23.4-52.16 52.16-52.16h329.556c28.76 0 52.156 23.4 52.156 52.16v50.88a6 6 0 0 0 6 6z" fill="#3A312A" p-id="2589"></path><path d="M453.764 662.388H124.212c-32.12 0-58.16 26.04-58.16 58.156v178.788c0 32.12 26.04 58.156 58.16 58.156h329.552c32.12 0 58.156-26.04 58.156-58.156v-178.788c0-32.116-26.036-58.156-58.156-58.156z" fill="#D7E057" p-id="2590"></path><path d="M453.764 656.392H124.212c-35.376 0-64.156 28.78-64.156 64.16v178.784c0 35.376 28.78 64.156 64.156 64.156h103.204a6 6 0 1 0 0-12H124.212c-28.76 0-52.156-23.4-52.156-52.156v-178.784c0-28.76 23.4-52.16 52.156-52.16h329.552c28.76 0 52.16 23.4 52.16 52.16v178.784c0 28.76-23.4 52.156-52.16 52.156H282.68a6 6 0 1 0 0 12h171.08c35.376 0 64.16-28.78 64.16-64.156v-178.784c0-35.38-28.78-64.16-64.156-64.16z" fill="#3A312A" p-id="2591"></path><path d="M899.792 662.388H570.24c-32.12 0-58.156 26.04-58.156 58.156v178.788c0 32.12 26.04 58.156 58.156 58.156h329.552c32.12 0 58.156-26.04 58.156-58.156v-178.788c0-32.116-26.04-58.156-58.156-58.156z" fill="#87796F" p-id="2592"></path><path d="M899.792 656.392h-329.556c-35.376 0-64.16 28.78-64.16 64.16v178.784c0 35.376 28.78 64.156 64.16 64.156h329.556c35.376 0 64.156-28.78 64.156-64.156v-178.784c0-35.38-28.78-64.16-64.156-64.16z m52.156 242.94c0 28.76-23.396 52.156-52.156 52.156h-329.556c-28.76 0-52.16-23.4-52.16-52.156v-178.784c0-28.76 23.4-52.16 52.16-52.16h329.556c28.76 0 52.156 23.4 52.156 52.16v178.784z" fill="#3A312A" p-id="2593"></path><path d="M670.444 69.812H340.892c-32.12 0-58.16 26.04-58.16 58.156v178.784c0 32.12 26.04 58.16 58.16 58.16h329.552c32.12 0 58.156-26.04 58.156-58.16V127.968c0.004-32.116-26.036-58.156-58.156-58.156z" fill="#F16C7A" p-id="2594"></path><path d="M670.444 63.812h-79.348a6 6 0 1 0 0 12h79.348c28.76 0 52.16 23.4 52.16 52.16v178.784c0 28.76-23.4 52.156-52.16 52.156H340.892c-28.76 0-52.156-23.4-52.156-52.156V127.972c0-28.76 23.4-52.16 52.156-52.16h194.116a6 6 0 1 0 0-12H340.892c-35.376 0-64.156 28.78-64.156 64.16v178.784c0 35.376 28.78 64.156 64.156 64.156h329.552c35.376 0 64.16-28.78 64.16-64.156V127.972c0-35.38-28.78-64.16-64.16-64.16z" fill="#3A312A" p-id="2595"></path><path d="M453.772 371.012h-48.92c28.76 0 52.16 23.4 52.16 52.16v178.8c0 28.76-23.4 52.16-52.16 52.16h48.92c28.76 0 52.16-23.4 52.16-52.16v-178.8c0-28.76-23.4-52.16-52.16-52.16z" fill="#68A8BC" p-id="2596"></path><path d="M951.932 474.052v-50.88c0-28.76-23.36-52.16-52.12-52.16h-48.92c28.76 0 52.16 23.4 52.16 52.16v178.8c0 28.76-23.4 52.16-52.16 52.16h48.92c28.76 0 52.12-23.4 52.12-52.16v-69.72c0-3.32 2.72-6 6-6v-46.2c-3.28 0-6-2.68-6-6z" fill="#CCAE8B" p-id="2597"></path><path d="M453.772 668.372h-48.92c28.76 0 52.16 23.4 52.16 52.16v178.8c0 28.76-23.4 52.16-52.16 52.16h48.92c28.76 0 52.16-23.4 52.16-52.16v-178.8c0-28.76-23.4-52.16-52.16-52.16z" fill="#B9BC39" p-id="2598"></path><path d="M899.812 668.372h-48.92c28.76 0 52.16 23.4 52.16 52.16v178.8c0 28.76-23.4 52.16-52.16 52.16h48.92c28.76 0 52.12-23.4 52.12-52.16v-178.8c0-28.76-23.36-52.16-52.12-52.16z" fill="#6B5B51" p-id="2599"></path><path d="M670.452 75.812h-48.92c28.76 0 52.16 23.4 52.16 52.16v178.8c0 28.76-23.4 52.16-52.16 52.16h48.92c28.76 0 52.16-23.4 52.16-52.16v-178.8c0-28.76-23.4-52.16-52.16-52.16z" fill="#CE4E61" p-id="2600"></path></svg>